<svg width="250" height="216" viewBox="0 0 250 216" fill="none" xmlns="http://www.w3.org/2000/svg">
<path d="M56.5673 197.734C99.4987 220.65 169.105 220.65 212.036 197.735C254.967 174.818 254.967 137.665 212.036 114.749C169.104 91.8337 99.4981 91.8337 56.5667 114.749C13.6352 137.664 13.6352 174.818 56.5673 197.734Z" fill="#D5E7BB"/>
<path d="M224.662 140.884L218.397 137.267C218.397 137.267 216.863 123.851 217.884 113.461C219.318 98.8606 228.747 81.2926 239.996 85.4182C251.245 89.5438 234.838 104.413 231.187 116.797C227.535 129.181 224.662 140.884 224.662 140.884Z" fill="#85D027"/>
<path opacity="0.1" d="M224.662 140.884L218.397 137.267C218.397 137.267 216.863 123.851 217.884 113.461C219.318 98.8606 228.747 81.2926 239.996 85.4182C251.245 89.5438 234.838 104.413 231.187 116.797C227.535 129.181 224.662 140.884 224.662 140.884Z" fill="black"/>
<path d="M221.399 139.243C221.28 139.243 221.176 139.154 221.161 139.033C219.03 122.669 224.86 97.8893 236.63 88.4937C236.735 88.4112 236.886 88.4281 236.97 88.5319C237.053 88.6363 237.035 88.788 236.931 88.8717C225.286 98.1666 219.526 122.734 221.639 138.969C221.657 139.102 221.564 139.223 221.431 139.24C221.42 139.242 221.409 139.243 221.399 139.243Z" fill="white"/>
<path d="M228.006 143.473L223.548 140.899C223.548 140.899 222.789 131.693 227.303 120.508C231.233 110.772 240.983 102.694 245.887 104.392C250.79 106.089 250.668 109.566 248.277 113.214C245.887 116.862 231.341 125.557 228.006 143.473Z" fill="#85D027"/>
<path d="M225.242 143.715C225.238 143.715 225.232 143.715 225.227 143.714C225.094 143.706 224.993 143.591 225.001 143.457C226.471 120.547 238.061 109.278 245.022 107.558C245.153 107.527 245.282 107.605 245.314 107.734C245.346 107.864 245.267 107.995 245.137 108.027C237.804 109.84 226.859 122.041 225.483 143.488C225.475 143.616 225.369 143.715 225.242 143.715Z" fill="white"/>
<path d="M44.2708 142.668C44.2708 142.668 45.1009 129.214 37.2853 119.995C29.4698 110.776 19.2975 110.806 15.9255 112.524C12.5541 114.243 10.2993 119.152 16.0948 122.665C21.8903 126.179 34.2137 133.206 36.2605 139.48L44.2708 142.668Z" fill="#85D027"/>
<path opacity="0.1" d="M44.2708 142.668C44.2708 142.668 45.1009 129.214 37.2853 119.995C29.4698 110.776 19.2975 110.806 15.9255 112.524C12.5541 114.243 10.2993 119.152 16.0948 122.665C21.8903 126.179 34.2137 133.206 36.2605 139.48L44.2708 142.668Z" fill="black"/>
<path d="M40.6193 139.301C40.4663 139.301 40.3347 139.187 40.3183 139.031C38.706 124.145 23.8316 115.894 17.9002 114.961C17.7352 114.935 17.6217 114.78 17.6478 114.614C17.6739 114.448 17.8335 114.338 17.9949 114.361C24.061 115.315 39.2734 123.75 40.9214 138.966C40.939 139.132 40.8189 139.282 40.6526 139.3C40.6411 139.301 40.6308 139.301 40.6193 139.301Z" fill="white"/>
<path d="M37.725 135.886C35.7656 131.42 33.5502 129.417 27.177 130.484C20.8039 131.55 21.7456 131.386 13.9179 129.392C10.6321 128.555 6.93492 128.423 3.78261 129.841C1.11938 131.039 -0.873942 133.483 1.70676 136.067C4.60603 138.969 8.93431 139.943 12.154 142.485C12.8488 143.034 13.5071 143.681 13.8299 144.505C14.6716 146.652 12.9865 149.073 13.4774 151.327C13.9513 153.504 16.3354 154.777 18.5587 154.924C20.782 155.071 22.9701 154.402 25.1837 154.149C27.3973 153.896 29.887 154.166 31.4119 155.791C33.0508 157.538 33.0933 160.32 34.6157 162.169C36.9028 164.946 42.5187 165.714 45.5338 163.977L53.4756 159.399C58.7268 152.321 50.4707 146.717 46.1054 141.224C43.9883 138.562 38.9015 138.569 37.725 135.886Z" fill="#85D027"/>
<path d="M48.5449 155.136C48.4435 155.136 48.344 155.085 48.2864 154.992C39.2263 140.312 14.5861 132.889 5.83795 132.267C5.67108 132.255 5.54487 132.11 5.5564 131.943C5.56853 131.775 5.72933 131.648 5.88042 131.661C14.7202 132.29 39.6262 139.805 48.8028 154.674C48.8907 154.816 48.8464 155.003 48.7038 155.091C48.6541 155.122 48.5989 155.136 48.5449 155.136Z" fill="white"/>
<path d="M19.8456 148.219C19.7534 148.219 19.6612 148.177 19.6023 148.096C19.5022 147.961 19.5307 147.772 19.6654 147.672C19.9816 147.437 27.504 141.915 34.8159 141.804C34.8159 141.804 34.8196 141.804 34.8208 141.804C34.9858 141.804 35.1217 141.937 35.1242 142.102C35.1266 142.27 34.9931 142.408 34.8256 142.411C27.7079 142.519 20.1029 148.103 20.0271 148.159C19.9725 148.199 19.9088 148.219 19.8456 148.219Z" fill="white"/>
<path d="M47.98 160.297C47.98 161.869 49.1566 163.823 50.608 164.66L124.228 207.164C125.679 208.002 128.032 208.002 129.483 207.164L230.215 149.007C231.666 148.169 232.843 146.215 232.843 144.644C232.843 143.071 231.667 141.118 230.215 140.28L156.595 97.776C155.144 96.938 152.791 96.938 151.34 97.776L50.6068 155.934C49.156 156.772 47.98 158.726 47.98 160.297Z" fill="#00231D"/>
<path d="M78.3539 139.914L50.6069 155.933C49.1561 156.771 47.9795 158.725 47.9795 160.296C47.9795 161.868 49.1561 163.822 50.6075 164.659L124.228 207.163C124.953 207.582 125.904 207.792 126.855 207.792V139.914H78.3539Z" fill="#263238"/>
<path d="M45.5152 156.027C44.1542 155.241 43.0504 153.246 43.0504 151.57L43.0498 63.7154C43.0498 62.04 44.2264 60.0024 45.6772 59.1644L146.41 1.00662C147.86 0.168639 150.141 0.126766 151.502 0.912567C152.864 1.69837 153.968 3.69412 153.968 5.36948V93.2245C153.968 94.8998 152.791 96.9374 151.34 97.7754L50.6068 155.934C49.156 156.771 46.8763 156.814 45.5152 156.027Z" fill="#00231D"/>
<path d="M55.3749 67.7977L43.8197 61.126C43.3446 61.9494 43.0503 62.8778 43.0503 63.7158L43.0509 151.571C43.0509 153.246 44.1541 155.242 45.5157 156.028C46.8768 156.813 49.1571 156.772 50.6079 155.934L62.0976 149.3L55.3749 67.7977Z" fill="#263238"/>
<path d="M47.9795 66.5618V154.417C47.9795 156.092 49.1561 156.772 50.6069 155.934L151.34 97.776C152.791 96.938 153.967 94.9003 153.967 93.225V5.37002C153.967 3.69465 152.791 3.01504 151.34 3.85303L50.6069 62.0108C49.1561 62.8488 47.9795 64.8864 47.9795 66.5618Z" fill="#00231D"/>
<path d="M50.6067 158.968L124.227 201.473C125.678 202.311 128.031 202.311 129.482 201.473L230.215 143.314C231.667 142.476 231.667 141.118 230.215 140.28L156.595 97.776C155.144 96.938 152.791 96.938 151.34 97.776L50.6067 155.934C49.1558 156.772 49.1558 158.13 50.6067 158.968Z" fill="#00231D"/>
<path d="M52.0208 66.8872L149.927 10.3617C150.798 9.85927 151.503 10.2664 151.503 11.2719V87.3241C151.503 88.3295 150.798 89.5522 149.927 90.0547L52.0208 146.579C51.15 147.081 50.4443 146.674 50.4443 145.669V69.6178C50.4443 68.6123 51.15 67.3902 52.0208 66.8872Z" fill="white"/>
<path d="M59.1527 156.692L152.655 102.71C153.38 102.291 154.556 102.291 155.282 102.71L160.064 105.47C160.79 105.889 160.79 106.569 160.064 106.987L66.5483 160.961C65.8226 161.38 64.646 161.38 63.9209 160.961L59.1527 158.209C58.427 157.79 58.427 157.111 59.1527 156.692Z" fill="#263238"/>
<path d="M71.4781 163.808L164.979 109.825C165.704 109.406 166.88 109.406 167.606 109.825L197.022 126.808C197.748 127.227 197.748 127.907 197.022 128.325L103.628 182.234C102.902 182.653 101.725 182.655 100.998 182.239L71.4805 165.321C70.7536 164.904 70.7524 164.227 71.4781 163.808Z" fill="#263238"/>
<path d="M155.293 134.112L158.22 132.422C158.344 132.35 158.337 132.229 158.204 132.152L154.818 130.197C154.685 130.12 154.475 130.116 154.351 130.188L151.423 131.878C151.299 131.95 151.306 132.071 151.44 132.148L154.826 134.102C154.959 134.179 155.168 134.183 155.293 134.112ZM149.516 127.396L146.588 129.086C146.463 129.158 146.471 129.279 146.604 129.356L149.989 131.31C150.123 131.387 150.332 131.392 150.457 131.32L153.384 129.629C153.508 129.558 153.501 129.437 153.367 129.36L149.982 127.405C149.849 127.328 149.64 127.324 149.516 127.396ZM140.057 132.856L135.103 135.717C134.979 135.788 134.986 135.909 135.119 135.986L138.505 137.941C138.638 138.018 138.847 138.022 138.972 137.95L143.926 135.09C144.051 135.018 144.043 134.898 143.91 134.821L140.525 132.866C140.391 132.789 140.182 132.785 140.057 132.856ZM145.237 129.866L142.309 131.557C142.185 131.628 142.192 131.749 142.326 131.826L145.712 133.78C145.845 133.858 146.054 133.862 146.178 133.79L149.105 132.1C149.23 132.028 149.222 131.908 149.089 131.831L145.704 129.876C145.57 129.798 145.361 129.794 145.237 129.866ZM133.752 136.497L130.825 138.187C130.701 138.259 130.708 138.379 130.841 138.456L134.227 140.411C134.36 140.488 134.569 140.492 134.694 140.421L137.622 138.73C137.746 138.659 137.739 138.538 137.605 138.461L134.22 136.506C134.085 136.429 133.876 136.425 133.752 136.497ZM129.473 138.967L126.546 140.657C126.421 140.729 126.429 140.85 126.562 140.927L129.948 142.881C130.081 142.958 130.29 142.963 130.415 142.891L133.343 141.201C133.467 141.129 133.46 141.009 133.326 140.932L129.941 138.978C129.807 138.9 129.597 138.895 129.473 138.967ZM142.789 146.915L145.716 145.225C145.84 145.153 145.834 145.032 145.699 144.955L142.315 143.001C142.181 142.924 141.972 142.919 141.847 142.991L138.92 144.681C138.796 144.753 138.803 144.873 138.937 144.951L142.322 146.905C142.455 146.983 142.664 146.987 142.789 146.915ZM138.51 149.385L141.437 147.696C141.562 147.623 141.554 147.503 141.42 147.425L138.036 145.472C137.902 145.395 137.693 145.39 137.568 145.462L134.641 147.152C134.516 147.224 134.523 147.345 134.657 147.422L138.042 149.376C138.176 149.453 138.386 149.457 138.51 149.385ZM134.232 151.856L137.159 150.165C137.284 150.094 137.276 149.973 137.143 149.896L133.758 147.941C133.625 147.864 133.415 147.86 133.291 147.932L130.364 149.622C130.239 149.694 130.247 149.814 130.381 149.891L133.766 151.845C133.898 151.923 134.107 151.927 134.232 151.856ZM129.952 154.326L132.88 152.636C133.005 152.564 132.997 152.444 132.863 152.367L129.479 150.412C129.345 150.335 129.136 150.331 129.011 150.402L126.084 152.092C125.96 152.164 125.967 152.285 126.1 152.362L129.486 154.316C129.619 154.393 129.828 154.398 129.952 154.326ZM151.014 136.582L153.942 134.892C154.066 134.82 154.059 134.699 153.925 134.622L150.54 132.668C150.406 132.591 150.198 132.586 150.073 132.658L147.146 134.348C147.022 134.42 147.029 134.541 147.162 134.618L150.548 136.572C150.681 136.649 150.889 136.654 151.014 136.582ZM147.068 144.444L153.598 140.674C153.722 140.601 153.715 140.481 153.581 140.404L145.36 135.658C145.227 135.581 145.017 135.577 144.893 135.648L141.515 137.598C141.391 137.671 141.398 137.791 141.531 137.868L145.884 140.381C146.017 140.458 146.025 140.579 145.9 140.651L143.198 142.211C143.074 142.282 143.081 142.403 143.215 142.48L146.6 144.435C146.734 144.512 146.943 144.517 147.068 144.444ZM125.195 141.438L122.267 143.128C122.142 143.2 122.15 143.321 122.284 143.398L125.669 145.352C125.803 145.429 126.011 145.433 126.136 145.362L129.064 143.672C129.188 143.6 129.181 143.479 129.047 143.402L125.662 141.447C125.528 141.37 125.319 141.366 125.195 141.438ZM120.916 143.908L117.988 145.598C117.864 145.67 117.871 145.79 118.005 145.868L121.389 147.822C121.523 147.899 121.732 147.904 121.857 147.832L124.784 146.142C124.908 146.07 124.901 145.949 124.767 145.872L121.382 143.918C121.249 143.841 121.04 143.836 120.916 143.908ZM99.535 171.609C99.6685 171.686 99.8772 171.69 100.002 171.618L102.93 169.928C103.054 169.856 103.046 169.735 102.913 169.658L99.5277 167.703C99.3942 167.626 99.1848 167.622 99.0604 167.694L96.1333 169.384C96.0089 169.456 96.0161 169.576 96.1496 169.654L99.535 171.609ZM86.686 163.671L83.7583 165.361C83.6339 165.432 83.6412 165.553 83.7746 165.63L87.16 167.584C87.2935 167.661 87.5028 167.666 87.6272 167.594L90.555 165.904C90.6794 165.832 90.6721 165.711 90.538 165.634L87.1527 163.68C87.0198 163.603 86.8104 163.598 86.686 163.671ZM93.5726 169.467C93.7061 169.544 93.9154 169.548 94.0398 169.476L96.9676 167.786C97.092 167.714 97.0841 167.594 96.9506 167.517L93.5659 165.562C93.4324 165.485 93.2237 165.481 93.0987 165.552L90.1715 167.242C90.0471 167.314 90.0544 167.435 90.1879 167.512L93.5726 169.467ZM107.09 173.11L110.017 171.42C110.142 171.348 110.134 171.228 110.001 171.151L106.616 169.196C106.482 169.119 106.273 169.115 106.148 169.187L103.221 170.877C103.097 170.949 103.104 171.069 103.238 171.146L106.624 173.101C106.756 173.177 106.965 173.182 107.09 173.11ZM102.344 175.571C102.477 175.648 102.687 175.652 102.81 175.58L105.738 173.89C105.863 173.818 105.855 173.697 105.722 173.62L102.337 171.666C102.203 171.589 101.994 171.584 101.869 171.656L98.9415 173.347C98.8171 173.418 98.8244 173.539 98.9585 173.616L102.344 175.571ZM90.9652 161.2L88.0374 162.89C87.913 162.962 87.9203 163.082 88.0544 163.159L91.4391 165.114C91.5726 165.191 91.7819 165.195 91.9063 165.123L94.8335 163.433C94.9579 163.361 94.9506 163.24 94.8171 163.163L91.4318 161.209C91.2983 161.132 91.089 161.128 90.9652 161.2ZM112.358 148.848L109.431 150.538C109.307 150.611 109.313 150.731 109.448 150.808L112.833 152.762C112.966 152.839 113.175 152.844 113.3 152.772L116.228 151.081C116.352 151.01 116.345 150.889 116.212 150.812L112.826 148.858C112.692 148.781 112.483 148.777 112.358 148.848ZM95.2437 158.73L92.3159 160.42C92.1915 160.492 92.1988 160.612 92.3323 160.689L95.7176 162.644C95.8511 162.721 96.0604 162.726 96.1848 162.654L99.112 160.964C99.2364 160.892 99.2291 160.771 99.095 160.694L95.7103 158.74C95.5774 158.662 95.3681 158.658 95.2437 158.73ZM116.637 146.378L113.71 148.069C113.585 148.14 113.593 148.261 113.727 148.338L117.112 150.293C117.246 150.37 117.454 150.375 117.579 150.302L120.507 148.612C120.631 148.54 120.624 148.42 120.491 148.343L117.105 146.388C116.971 146.31 116.761 146.307 116.637 146.378ZM108.08 151.319L105.152 153.009C105.028 153.08 105.035 153.201 105.168 153.278L108.554 155.233C108.687 155.31 108.897 155.314 109.021 155.242L111.948 153.552C112.073 153.481 112.065 153.36 111.932 153.283L108.546 151.328C108.413 151.251 108.204 151.247 108.08 151.319ZM103.801 153.789L100.874 155.48C100.749 155.551 100.756 155.672 100.89 155.749L104.275 157.703C104.409 157.78 104.618 157.785 104.742 157.713L107.67 156.023C107.794 155.951 107.787 155.83 107.653 155.753L104.269 153.799C104.134 153.722 103.925 153.717 103.801 153.789ZM99.5222 156.259L96.5944 157.949C96.47 158.021 96.4773 158.142 96.6108 158.219L99.9961 160.174C100.13 160.251 100.339 160.255 100.463 160.183L103.391 158.493C103.516 158.421 103.508 158.3 103.374 158.223L99.9888 156.268C99.856 156.192 99.6466 156.188 99.5222 156.259ZM121.395 159.267L124.323 157.576C124.447 157.504 124.44 157.383 124.306 157.307L120.921 155.352C120.787 155.275 120.578 155.271 120.454 155.342L117.526 157.032C117.401 157.104 117.409 157.225 117.543 157.302L120.928 159.257C121.062 159.334 121.27 159.338 121.395 159.267ZM158.974 121.935L156.046 123.626C155.922 123.697 155.929 123.818 156.063 123.895L159.448 125.85C159.582 125.927 159.791 125.931 159.915 125.859L162.843 124.169C162.967 124.097 162.96 123.977 162.826 123.899L159.441 121.945C159.307 121.867 159.098 121.864 158.974 121.935ZM153.794 124.926L150.867 126.616C150.742 126.688 150.75 126.808 150.883 126.885L154.268 128.84C154.401 128.917 154.611 128.921 154.735 128.85L157.663 127.16C157.787 127.088 157.78 126.967 157.647 126.89L154.261 124.935C154.128 124.858 153.918 124.854 153.794 124.926ZM163.252 119.465L160.325 121.155C160.201 121.226 160.208 121.347 160.341 121.425L163.727 123.379C163.86 123.456 164.07 123.46 164.193 123.388L167.121 121.699C167.246 121.626 167.238 121.506 167.105 121.429L163.72 119.474C163.586 119.398 163.377 119.393 163.252 119.465ZM141.105 142.302L144.033 140.612C144.157 140.54 144.15 140.42 144.016 140.342L140.631 138.388C140.497 138.311 140.288 138.307 140.164 138.378L137.236 140.069C137.111 140.14 137.119 140.261 137.252 140.338L140.638 142.293C140.772 142.37 140.981 142.375 141.105 142.302ZM167.998 117.004C167.864 116.927 167.655 116.923 167.531 116.995L164.604 118.685C164.479 118.757 164.486 118.877 164.62 118.954L168.005 120.909C168.139 120.986 168.347 120.99 168.472 120.918L171.4 119.228C171.524 119.156 171.517 119.035 171.383 118.958L167.998 117.004ZM125.674 156.796L128.601 155.106C128.725 155.034 128.718 154.914 128.584 154.837L125.199 152.882C125.065 152.805 124.857 152.801 124.732 152.873L121.804 154.563C121.679 154.635 121.687 154.756 121.82 154.833L125.205 156.787C125.34 156.864 125.55 156.868 125.674 156.796ZM178.144 126.502L181.071 124.812C181.196 124.74 181.188 124.619 181.055 124.542L177.67 122.588C177.536 122.511 177.327 122.507 177.202 122.578L174.275 124.268C174.151 124.34 174.158 124.461 174.292 124.538L177.677 126.493C177.81 126.57 178.02 126.574 178.144 126.502ZM169.03 126.181L171.957 124.49C172.081 124.419 172.074 124.298 171.94 124.221L168.554 122.267C168.421 122.189 168.212 122.185 168.088 122.257L165.16 123.947C165.036 124.019 165.043 124.139 165.176 124.216L168.562 126.171C168.696 126.248 168.905 126.253 169.03 126.181ZM172.834 119.796C172.701 119.719 172.491 119.715 172.367 119.787L169.439 121.477C169.315 121.549 169.322 121.669 169.456 121.746L172.841 123.701C172.975 123.778 173.184 123.782 173.308 123.711L176.236 122.021C176.36 121.949 176.353 121.828 176.219 121.751L172.834 119.796ZM173.735 119.276L181.955 124.023C182.089 124.1 182.298 124.104 182.423 124.032L185.35 122.342C185.474 122.27 185.467 122.149 185.333 122.072L177.113 117.326C176.979 117.249 176.77 117.245 176.645 117.316L173.718 119.006C173.594 119.078 173.601 119.199 173.735 119.276ZM163.81 124.727L160.882 126.417C160.758 126.489 160.765 126.609 160.898 126.686L164.284 128.641C164.417 128.718 164.627 128.723 164.751 128.651L167.678 126.961C167.803 126.888 167.795 126.768 167.662 126.691L164.277 124.737C164.143 124.66 163.934 124.655 163.81 124.727ZM131.607 143.319L128.679 145.01C128.555 145.081 128.562 145.202 128.696 145.279L132.081 147.234C132.215 147.311 132.424 147.315 132.548 147.243L135.476 145.554C135.601 145.481 135.593 145.361 135.459 145.284L132.074 143.33C131.94 143.252 131.732 143.248 131.607 143.319ZM173.398 128.963C173.531 129.04 173.741 129.044 173.866 128.973L176.793 127.283C176.917 127.211 176.911 127.091 176.776 127.013L173.391 125.059C173.258 124.982 173.048 124.978 172.925 125.049L169.997 126.74C169.872 126.811 169.88 126.932 170.013 127.009L173.398 128.963ZM135.886 140.849L132.958 142.539C132.834 142.611 132.841 142.731 132.975 142.808L136.36 144.763C136.494 144.84 136.702 144.844 136.827 144.773L139.755 143.082C139.88 143.01 139.872 142.89 139.739 142.813L136.354 140.858C136.219 140.782 136.01 140.777 135.886 140.849ZM103.813 169.138C103.947 169.215 104.156 169.219 104.281 169.148L107.208 167.458C107.332 167.385 107.326 167.265 107.192 167.188L103.806 165.234C103.673 165.157 103.464 165.152 103.34 165.224L100.412 166.915C100.287 166.986 100.295 167.107 100.428 167.184L103.813 169.138ZM97.3772 163.082L94.4494 164.773C94.325 164.844 94.3323 164.965 94.4664 165.042L97.8517 166.997C97.9852 167.074 98.1945 167.078 98.3189 167.006L101.247 165.316C101.371 165.244 101.364 165.124 101.23 165.046L97.845 163.092C97.7103 163.014 97.5016 163.01 97.3772 163.082ZM108.559 166.677L111.486 164.987C111.611 164.916 111.604 164.795 111.47 164.718L108.085 162.763C107.951 162.686 107.742 162.682 107.617 162.754L104.69 164.444C104.566 164.515 104.573 164.636 104.707 164.713L108.092 166.668C108.225 166.745 108.435 166.75 108.559 166.677ZM112.838 164.207L115.766 162.517C115.89 162.445 115.883 162.325 115.749 162.248L112.364 160.293C112.231 160.216 112.022 160.212 111.897 160.284L108.969 161.973C108.845 162.046 108.852 162.166 108.986 162.243L112.372 164.197C112.504 164.274 112.713 164.279 112.838 164.207ZM117.116 161.737L120.044 160.047C120.168 159.975 120.161 159.855 120.028 159.777L116.642 157.822C116.509 157.745 116.3 157.741 116.175 157.813L113.248 159.503C113.124 159.575 113.131 159.696 113.264 159.773L116.649 161.727C116.783 161.804 116.992 161.809 117.116 161.737ZM101.656 160.612L98.7285 162.302C98.6041 162.373 98.6114 162.494 98.7449 162.572L102.13 164.526C102.264 164.603 102.472 164.608 102.597 164.536L105.525 162.846C105.65 162.774 105.642 162.653 105.509 162.576L102.124 160.621C101.989 160.544 101.78 160.54 101.656 160.612ZM105.935 158.142L103.007 159.831C102.883 159.904 102.89 160.024 103.023 160.101L106.409 162.055C106.542 162.132 106.752 162.137 106.876 162.065L109.804 160.375C109.928 160.303 109.921 160.182 109.787 160.105L106.401 158.151C106.268 158.074 106.059 158.069 105.935 158.142ZM123.05 148.26L120.122 149.95C119.997 150.023 120.005 150.143 120.139 150.22L123.524 152.174C123.658 152.251 123.866 152.256 123.991 152.184L126.918 150.494C127.043 150.422 127.036 150.301 126.902 150.224L123.517 148.27C123.383 148.193 123.174 148.188 123.05 148.26ZM118.77 150.73L115.843 152.421C115.718 152.492 115.725 152.614 115.859 152.69L119.244 154.645C119.377 154.722 119.587 154.726 119.711 154.654L122.639 152.964C122.763 152.892 122.756 152.772 122.622 152.694L119.237 150.74C119.104 150.663 118.895 150.659 118.77 150.73ZM127.328 145.79L124.4 147.48C124.276 147.552 124.283 147.672 124.417 147.749L127.801 149.703C127.935 149.78 128.144 149.785 128.269 149.713L131.196 148.023C131.321 147.951 131.313 147.83 131.179 147.753L127.794 145.799C127.662 145.722 127.452 145.718 127.328 145.79ZM110.213 155.671L107.286 157.361C107.161 157.433 107.168 157.554 107.302 157.631L110.687 159.585C110.821 159.662 111.029 159.666 111.154 159.595L114.082 157.905C114.207 157.833 114.199 157.713 114.066 157.635L110.681 155.682C110.547 155.604 110.338 155.599 110.213 155.671ZM114.492 153.201L111.564 154.891C111.44 154.963 111.447 155.083 111.581 155.16L114.966 157.115C115.1 157.192 115.309 157.196 115.433 157.125L118.36 155.434C118.485 155.362 118.477 155.242 118.344 155.165L114.958 153.21C114.826 153.133 114.616 153.129 114.492 153.201ZM111.368 170.64L114.295 168.949C114.42 168.878 114.412 168.757 114.279 168.68L110.894 166.725C110.76 166.648 110.551 166.644 110.426 166.716L107.499 168.405C107.375 168.478 107.382 168.598 107.516 168.676L110.9 170.63C111.035 170.707 111.244 170.711 111.368 170.64ZM86.2601 168.105L82.8748 166.15C82.7413 166.073 82.5325 166.069 82.4075 166.14L79.4803 167.831C79.356 167.902 79.3632 168.023 79.4967 168.1L82.882 170.055C83.0155 170.132 83.2249 170.136 83.3493 170.064L86.2765 168.375C86.4009 168.302 86.393 168.182 86.2601 168.105ZM92.6721 169.987L89.2868 168.032C89.1533 167.955 88.9445 167.95 88.8195 168.023L84.3159 170.623C84.1915 170.694 84.1988 170.815 84.3329 170.892L87.7182 172.846C87.8517 172.923 88.0604 172.928 88.1854 172.856L92.6891 170.256C92.8129 170.184 92.8056 170.064 92.6721 169.987ZM81.0659 164.326L77.6806 162.372C77.5471 162.295 77.3384 162.29 77.2134 162.362L73.6102 164.442C73.4858 164.514 73.4931 164.635 73.6266 164.712L77.0113 166.666C77.1448 166.743 77.3541 166.748 77.4785 166.676L81.0817 164.596C81.2073 164.524 81.1994 164.403 81.0659 164.326ZM83.8286 162.731C83.9621 162.808 84.1709 162.813 84.2953 162.741L87.2225 161.051C87.3469 160.979 87.3396 160.858 87.2061 160.781L83.8208 158.827C83.6873 158.75 83.4779 158.745 83.3535 158.817L80.4263 160.507C80.302 160.579 80.3092 160.699 80.4427 160.776L83.8286 162.731ZM98.6339 172.128L95.2486 170.174C95.1151 170.097 94.9057 170.092 94.7813 170.165L89.1515 173.415C89.0271 173.487 89.0344 173.607 89.1685 173.684L92.5532 175.638C92.6867 175.716 92.8954 175.72 93.0204 175.648L98.6503 172.398C98.7746 172.326 98.7674 172.206 98.6339 172.128ZM101.443 176.091L98.058 174.136C97.9251 174.059 97.7158 174.054 97.5914 174.126L93.9882 176.206C93.8638 176.278 93.8711 176.399 94.0046 176.476L97.3899 178.43C97.5234 178.507 97.7328 178.512 97.8572 178.44L101.46 176.36C101.584 176.288 101.576 176.168 101.443 176.091ZM115.641 144.364C115.775 144.441 115.983 144.446 116.108 144.374L119.035 142.683C119.159 142.612 119.152 142.491 119.019 142.414L115.633 140.459C115.5 140.382 115.29 140.378 115.166 140.45L112.239 142.14C112.114 142.212 112.122 142.332 112.255 142.409L115.641 144.364ZM107.083 149.305C107.217 149.382 107.426 149.386 107.551 149.314L110.479 147.624C110.603 147.552 110.596 147.432 110.462 147.354L107.076 145.4C106.943 145.323 106.734 145.319 106.609 145.39L103.681 147.08C103.557 147.152 103.564 147.273 103.698 147.35L107.083 149.305ZM88.1072 160.26C88.2407 160.338 88.45 160.342 88.5744 160.27L91.5022 158.58C91.6266 158.509 91.6193 158.388 91.4858 158.311L88.1005 156.356C87.967 156.279 87.7583 156.275 87.6333 156.347L84.7055 158.037C84.5811 158.108 84.5884 158.229 84.7218 158.306L88.1072 160.26ZM111.362 146.834C111.496 146.912 111.705 146.916 111.829 146.844L114.757 145.154C114.881 145.083 114.874 144.962 114.74 144.885L111.355 142.93C111.222 142.853 111.013 142.849 110.888 142.921L107.961 144.611C107.837 144.682 107.844 144.803 107.977 144.88L111.362 146.834ZM102.805 151.775C102.938 151.852 103.148 151.856 103.272 151.784L106.199 150.094C106.324 150.023 106.317 149.901 106.183 149.824L102.798 147.87C102.665 147.793 102.455 147.788 102.331 147.86L99.4033 149.55C99.2789 149.622 99.2862 149.743 99.4203 149.82L102.805 151.775ZM103.795 176.409C103.661 176.331 103.452 176.327 103.327 176.399L98.8238 178.999C98.6994 179.071 98.7067 179.191 98.8402 179.268L102.225 181.223C102.359 181.3 102.568 181.305 102.693 181.233L107.196 178.632C107.321 178.561 107.313 178.44 107.179 178.363L103.795 176.409ZM96.6642 155.32C96.7977 155.397 97.0064 155.401 97.1314 155.33L100.059 153.64C100.184 153.567 100.176 153.447 100.043 153.37L96.6575 151.415C96.524 151.338 96.3147 151.334 96.1903 151.405L93.2625 153.096C93.1381 153.168 93.1454 153.288 93.2789 153.365L96.6642 155.32ZM92.3857 157.791C92.5192 157.868 92.7285 157.872 92.8529 157.801L95.7801 156.11C95.9045 156.038 95.8972 155.918 95.7637 155.841L92.3784 153.886C92.2449 153.809 92.0356 153.805 91.9112 153.876L88.9834 155.566C88.859 155.638 88.8663 155.759 89.0004 155.836L92.3857 157.791ZM183.063 130.643C182.929 130.566 182.721 130.561 182.596 130.633L175.39 134.794C175.266 134.865 175.273 134.986 175.406 135.064L178.792 137.018C178.925 137.095 179.134 137.1 179.259 137.028L186.465 132.867C186.589 132.796 186.582 132.675 186.448 132.598L183.063 130.643ZM173.605 136.103C173.471 136.026 173.263 136.022 173.138 136.094L170.21 137.784C170.085 137.856 170.093 137.976 170.226 138.054L173.611 140.008C173.744 140.085 173.954 140.089 174.078 140.017L177.005 138.327C177.13 138.256 177.122 138.135 176.988 138.058L173.605 136.103ZM115.647 168.169L118.575 166.479C118.699 166.407 118.692 166.287 118.558 166.209L115.173 164.255C115.039 164.178 114.83 164.174 114.705 164.245L111.778 165.936C111.654 166.007 111.661 166.128 111.795 166.205L115.18 168.16C115.313 168.237 115.523 168.241 115.647 168.169ZM165.048 141.044C164.914 140.967 164.705 140.963 164.58 141.034L161.653 142.724C161.528 142.796 161.536 142.917 161.67 142.994L165.054 144.949C165.188 145.026 165.397 145.03 165.522 144.958L168.449 143.268C168.574 143.196 168.567 143.075 168.433 142.998L165.048 141.044ZM187.342 128.172C187.208 128.095 186.999 128.091 186.875 128.162L183.947 129.853C183.823 129.924 183.83 130.045 183.964 130.122L187.349 132.077C187.483 132.154 187.692 132.158 187.817 132.086L190.744 130.396C190.869 130.324 190.861 130.204 190.728 130.127L187.342 128.172ZM195.006 127.657L186.784 122.91C186.651 122.833 186.442 122.828 186.317 122.9L183.389 124.591C183.265 124.662 183.272 124.783 183.406 124.86L191.627 129.607C191.76 129.684 191.969 129.688 192.094 129.617L195.022 127.926C195.147 127.855 195.139 127.733 195.006 127.657ZM149.059 150.275C148.925 150.198 148.716 150.194 148.592 150.265L144.989 152.345C144.864 152.417 144.872 152.538 145.005 152.615L148.391 154.569C148.524 154.646 148.733 154.651 148.858 154.579L152.461 152.499C152.585 152.427 152.578 152.306 152.445 152.23L149.059 150.275ZM159.868 144.034C159.735 143.957 159.525 143.953 159.401 144.024L154.897 146.625C154.772 146.697 154.779 146.817 154.913 146.895L158.298 148.849C158.432 148.926 158.641 148.93 158.766 148.859L163.269 146.259C163.394 146.187 163.386 146.066 163.252 145.989L159.868 144.034ZM139.15 155.995C139.017 155.918 138.807 155.914 138.683 155.986L114.587 169.898C114.463 169.969 114.47 170.09 114.604 170.167L117.989 172.121C118.122 172.199 118.331 172.203 118.456 172.131L142.552 158.22C142.676 158.148 142.669 158.027 142.536 157.95L139.15 155.995ZM113.703 170.688C113.57 170.611 113.36 170.606 113.236 170.678L109.633 172.758C109.508 172.83 109.516 172.95 109.65 173.028L113.035 174.983C113.168 175.06 113.378 175.064 113.502 174.992L117.105 172.912C117.229 172.84 117.222 172.719 117.088 172.642L113.703 170.688ZM144.104 153.135C143.971 153.058 143.761 153.054 143.637 153.126L140.034 155.206C139.909 155.278 139.917 155.398 140.05 155.475L143.435 157.43C143.569 157.507 143.778 157.512 143.903 157.439L147.506 155.359C147.63 155.287 147.623 155.166 147.489 155.089L144.104 153.135ZM108.749 173.547C108.615 173.47 108.406 173.466 108.281 173.538L104.678 175.618C104.554 175.69 104.562 175.81 104.695 175.887L108.08 177.842C108.213 177.919 108.422 177.923 108.547 177.851L112.15 175.771C112.275 175.699 112.267 175.579 112.134 175.501L108.749 173.547ZM154.013 147.415C153.88 147.338 153.671 147.333 153.546 147.405L149.943 149.485C149.819 149.557 149.826 149.677 149.96 149.754L153.345 151.709C153.479 151.786 153.688 151.79 153.812 151.719L157.415 149.638C157.539 149.567 157.532 149.446 157.398 149.369L154.013 147.415ZM169.326 138.574C169.193 138.497 168.983 138.492 168.859 138.564L165.932 140.254C165.807 140.326 165.815 140.447 165.949 140.524L169.334 142.478C169.468 142.555 169.676 142.56 169.801 142.488L172.729 140.798C172.853 140.726 172.846 140.606 172.712 140.528L169.326 138.574ZM178.701 131.765L181.628 130.075C181.753 130.003 181.746 129.882 181.612 129.805L178.227 127.851C178.093 127.774 177.884 127.77 177.759 127.841L174.832 129.531C174.708 129.603 174.715 129.723 174.849 129.801L178.234 131.756C178.368 131.832 178.577 131.836 178.701 131.765ZM159.571 131.642L162.499 129.952C162.623 129.88 162.616 129.759 162.482 129.682L159.097 127.728C158.963 127.651 158.754 127.646 158.63 127.718L155.702 129.408C155.578 129.48 155.585 129.6 155.719 129.677L159.104 131.632C159.238 131.709 159.447 131.713 159.571 131.642ZM149.877 148.407L158.434 143.466C158.559 143.395 158.551 143.274 158.417 143.197L155.033 141.242C154.899 141.165 154.69 141.161 154.565 141.233L146.008 146.173C145.883 146.245 145.891 146.365 146.024 146.442L149.409 148.396C149.543 148.474 149.752 148.479 149.877 148.407ZM173.956 134.225C174.09 134.302 174.299 134.307 174.423 134.235L177.35 132.545C177.475 132.473 177.468 132.353 177.334 132.275L173.949 130.321C173.815 130.243 173.607 130.239 173.482 130.311L170.554 132.001C170.43 132.073 170.438 132.194 170.571 132.271L173.956 134.225ZM169.587 131.443L172.514 129.753C172.638 129.681 172.631 129.56 172.497 129.483L169.112 127.529C168.979 127.452 168.769 127.447 168.645 127.519L165.718 129.209C165.593 129.281 165.6 129.401 165.734 129.478L169.119 131.433C169.253 131.51 169.463 131.515 169.587 131.443ZM145.597 150.877L148.525 149.186C148.65 149.115 148.642 148.994 148.509 148.917L145.124 146.963C144.99 146.885 144.781 146.881 144.656 146.953L141.729 148.643C141.604 148.715 141.611 148.836 141.746 148.913L145.13 150.867C145.264 150.944 145.473 150.949 145.597 150.877ZM164.497 139.686C164.631 139.763 164.84 139.768 164.965 139.696L167.892 138.006C168.016 137.934 168.009 137.813 167.875 137.736L164.49 135.782C164.357 135.705 164.148 135.7 164.023 135.772L161.095 137.462C160.971 137.534 160.978 137.654 161.111 137.731L164.497 139.686ZM124.204 163.229L127.131 161.538C127.256 161.467 127.249 161.346 127.115 161.269L123.73 159.314C123.596 159.237 123.388 159.233 123.263 159.305L120.335 160.995C120.211 161.067 120.218 161.188 120.352 161.265L123.737 163.219C123.871 163.296 124.08 163.3 124.204 163.229ZM128.483 160.758L131.411 159.068C131.535 158.996 131.528 158.876 131.394 158.799L128.008 156.844C127.875 156.767 127.666 156.763 127.542 156.835L124.614 158.525C124.489 158.597 124.497 158.717 124.63 158.794L128.016 160.749C128.15 160.826 128.359 160.83 128.483 160.758ZM119.926 165.699L122.854 164.009C122.978 163.937 122.971 163.816 122.837 163.739L119.452 161.785C119.318 161.708 119.109 161.703 118.985 161.776L116.057 163.466C115.933 163.537 115.94 163.658 116.074 163.735L119.459 165.689C119.593 165.767 119.801 165.771 119.926 165.699ZM137.04 155.817L139.968 154.128C140.092 154.055 140.085 153.935 139.951 153.858L136.566 151.903C136.432 151.826 136.223 151.822 136.099 151.893L133.171 153.584C133.046 153.655 133.054 153.776 133.187 153.853L136.572 155.808C136.707 155.885 136.916 155.89 137.04 155.817ZM132.762 158.288L135.689 156.598C135.813 156.526 135.806 156.405 135.673 156.328L132.287 154.374C132.154 154.297 131.945 154.293 131.82 154.364L128.892 156.054C128.768 156.126 128.775 156.247 128.909 156.324L132.295 158.279C132.428 158.356 132.638 158.36 132.762 158.288ZM141.319 153.347L144.247 151.657C144.371 151.586 144.364 151.465 144.23 151.388L140.845 149.433C140.712 149.356 140.502 149.351 140.378 149.424L137.45 151.114C137.326 151.185 137.333 151.306 137.467 151.383L140.852 153.338C140.986 153.415 141.195 153.419 141.319 153.347ZM160.894 116.803C161.028 116.88 161.237 116.884 161.361 116.813L164.289 115.122C164.414 115.051 164.406 114.93 164.273 114.853L163.372 114.332C163.238 114.255 163.029 114.251 162.905 114.322L159.977 116.013C159.854 116.084 159.86 116.205 159.994 116.282L160.894 116.803ZM139.842 130.392C139.975 130.469 140.184 130.473 140.309 130.401L143.237 128.711C143.361 128.64 143.354 128.519 143.221 128.442L139.835 126.488C139.702 126.41 139.492 126.406 139.368 126.478L136.44 128.169C136.316 128.24 136.323 128.361 136.457 128.438L139.842 130.392ZM148.4 125.451C148.533 125.528 148.742 125.532 148.866 125.461L151.794 123.771C151.918 123.699 151.911 123.578 151.778 123.501L148.392 121.546C148.259 121.469 148.05 121.465 147.925 121.537L144.997 123.227C144.874 123.299 144.88 123.42 145.014 123.496L148.4 125.451ZM134.617 133.408C134.751 133.485 134.96 133.489 135.085 133.418L138.013 131.728C138.137 131.656 138.13 131.535 137.996 131.458L134.611 129.504C134.477 129.427 134.268 129.422 134.144 129.495L131.216 131.185C131.091 131.256 131.099 131.377 131.232 131.455L134.617 133.408ZM144.121 127.921C144.254 127.998 144.463 128.003 144.588 127.931L147.515 126.24C147.639 126.169 147.632 126.048 147.498 125.971L144.113 124.017C143.979 123.939 143.77 123.935 143.646 124.007L140.719 125.697C140.594 125.769 140.602 125.889 140.735 125.966L144.121 127.921ZM126.06 138.349C126.193 138.426 126.402 138.43 126.527 138.358L129.454 136.668C129.579 136.597 129.571 136.476 129.438 136.398L126.053 134.444C125.919 134.367 125.71 134.363 125.585 134.435L122.658 136.125C122.533 136.197 122.541 136.317 122.675 136.395L126.06 138.349ZM130.338 135.879C130.472 135.956 130.681 135.96 130.806 135.888L133.733 134.198C133.858 134.126 133.85 134.006 133.716 133.929L130.332 131.974C130.198 131.897 129.989 131.893 129.864 131.964L126.937 133.654C126.813 133.726 126.82 133.847 126.954 133.924L130.338 135.879ZM152.337 121.743C152.47 121.821 152.679 121.825 152.804 121.753L155.732 120.063C155.856 119.991 155.849 119.87 155.715 119.793L154.814 119.273C154.681 119.196 154.471 119.192 154.347 119.263L151.42 120.954C151.295 121.026 151.303 121.146 151.436 121.223L152.337 121.743ZM165.173 114.333C165.306 114.41 165.516 114.414 165.64 114.342L168.568 112.652C168.692 112.58 168.685 112.46 168.551 112.383L167.65 111.862C167.516 111.785 167.307 111.781 167.182 111.853L164.255 113.543C164.13 113.615 164.138 113.736 164.272 113.813L165.173 114.333ZM172.284 118.438C172.417 118.515 172.627 118.52 172.751 118.448L175.678 116.758C175.803 116.686 175.795 116.566 175.662 116.489L172.276 114.534C172.143 114.457 171.934 114.453 171.809 114.524L168.881 116.215C168.757 116.287 168.764 116.407 168.898 116.484L172.284 118.438ZM182.98 129.294L185.908 127.604C186.033 127.532 186.025 127.412 185.892 127.334L182.506 125.38C182.373 125.303 182.164 125.299 182.039 125.37L179.112 127.06C178.988 127.132 178.995 127.253 179.129 127.33L182.514 129.284C182.647 129.362 182.855 129.366 182.98 129.294ZM156.616 119.273C156.749 119.35 156.958 119.355 157.083 119.283L160.011 117.593C160.135 117.521 160.128 117.401 159.994 117.324L159.093 116.804C158.96 116.726 158.75 116.722 158.626 116.794L155.698 118.484C155.574 118.556 155.581 118.676 155.715 118.753L156.616 119.273ZM121.781 140.819C121.915 140.896 122.124 140.901 122.249 140.829L125.176 139.139C125.301 139.067 125.293 138.947 125.16 138.87L121.775 136.915C121.641 136.838 121.432 136.834 121.307 136.905L118.38 138.596C118.256 138.668 118.263 138.788 118.397 138.865L121.781 140.819Z" fill="#00231D"/>
<path d="M139.18 167.412L171.222 148.913L190.941 160.298L158.898 178.797L139.18 167.412Z" fill="#263238"/>
<path d="M67.9823 74.1832L163.462 19.0588C165.329 17.9806 166.857 18.8628 166.857 21.0188V94.9709C166.857 95.9721 166.148 97.2008 165.281 97.7014L67.3743 154.226C66.5072 154.726 65.7979 154.317 65.7979 153.316V77.9672C65.7979 76.5795 66.7809 74.8768 67.9823 74.1832Z" fill="#F5F5F5"/>
<path d="M166.857 22.79V21.0188C166.857 18.8628 165.329 17.9806 163.462 19.0588L67.9818 74.1832C66.7804 74.8768 65.7974 76.5795 65.7974 77.9666V81.1359L166.857 22.79Z" fill="#85D027"/>
<path d="M152.619 26.8279C151.974 27.2005 151.45 28.1076 151.45 28.8528C151.45 29.5985 151.974 29.9007 152.619 29.5275C153.265 29.155 153.789 28.2484 153.789 27.5027C153.789 26.7569 153.265 26.4547 152.619 26.8279Z" fill="white"/>
<path d="M157.26 24.1488C156.614 24.5214 156.09 25.4285 156.09 26.1737C156.09 26.9194 156.614 27.2216 157.26 26.849C157.905 26.4759 158.429 25.5693 158.429 24.8236C158.429 24.0784 157.905 23.7762 157.26 24.1488Z" fill="white"/>
<path d="M161.9 21.4701C161.254 21.8433 160.73 22.7498 160.73 23.4956C160.73 24.2413 161.254 24.5435 161.9 24.1703C162.545 23.7978 163.069 22.8906 163.069 22.1449C163.068 21.3997 162.545 21.0975 161.9 21.4701Z" fill="white"/>
<path d="M89.3548 117.341L85.6401 115.196L76.5406 130.957L80.2553 133.101L89.3548 117.341Z" fill="#37474F"/>
<path d="M89.3576 117.341L87.5 116.269L78.4005 132.029L80.2581 133.101L89.3576 117.341Z" fill="#263238"/>
<path d="M66.5677 161.737C64.873 164.676 56.8681 160.005 58.5417 157.103L79.447 124.501C79.5641 124.318 79.805 124.259 79.9931 124.368L84.1915 126.792C84.3796 126.9 84.4494 127.137 84.3493 127.33L66.5677 161.737Z" fill="#85D027"/>
<path opacity="0.1" d="M66.5678 161.736L84.3487 127.331C84.4488 127.138 84.3791 126.901 84.1909 126.792L82.2795 125.688L61.8833 161.923C63.7504 162.837 65.8026 163.064 66.5678 161.736Z" fill="black"/>
<path d="M128.013 84.9794C128.007 84.7306 127.995 84.4879 127.977 84.2452C127.964 84.0025 127.946 83.7658 127.922 83.5292C127.91 83.3714 127.892 83.2136 127.873 83.0559C127.831 82.6432 127.77 82.2367 127.704 81.8483C127.673 81.6724 127.643 81.4903 127.606 81.3143C127.576 81.1444 127.54 80.9806 127.503 80.8168C127.4 80.3677 127.291 79.9309 127.163 79.5122C127.097 79.3119 127.036 79.1117 126.969 78.9175C126.957 78.8872 126.945 78.8568 126.939 78.8265C126.866 78.6323 126.799 78.4442 126.727 78.2622C126.642 78.0498 126.557 77.8374 126.46 77.6372C126.393 77.4855 126.326 77.3398 126.247 77.1942C126.205 77.085 126.15 76.9818 126.089 76.8787C126.029 76.7512 125.962 76.6238 125.889 76.5025C125.871 76.4721 125.859 76.4418 125.841 76.4175C125.78 76.3083 125.713 76.1991 125.646 76.0898C125.604 76.017 125.555 75.9503 125.513 75.8835C125.191 75.3799 124.846 74.9187 124.469 74.494C124.403 74.4211 124.336 74.3483 124.275 74.2755C124.221 74.2148 124.166 74.1602 124.111 74.1056C124.045 74.0328 123.972 73.966 123.899 73.8932C123.693 73.6869 123.486 73.4988 123.268 73.3289C123.165 73.2379 123.055 73.1529 122.946 73.0741C122.837 72.9891 122.728 72.9102 122.613 72.8313C122.437 72.7039 122.254 72.5826 122.072 72.4794C122.024 72.4491 121.975 72.4187 121.927 72.3884L121.896 72.3641C121.89 72.3641 121.89 72.3641 121.89 72.3641L113.292 67.4005C113.286 67.4005 113.286 67.4005 113.28 67.4005L113.231 67.3702C111.654 66.4721 109.833 66.0049 107.831 66.0049C105.015 66.0049 101.836 66.9272 98.4681 68.869C86.9026 75.5498 77.5215 91.7937 77.5215 105.155C77.5215 111.818 79.8516 116.502 83.6198 118.699L83.6562 118.717C83.6562 118.717 83.6562 118.717 83.6562 118.723L92.2606 123.681C92.2606 123.687 92.2606 123.687 92.2666 123.687L92.303 123.711V123.705C92.3394 123.723 92.3698 123.742 92.4062 123.76C92.57 123.857 92.7339 123.942 92.9038 124.021C93.1101 124.124 93.3225 124.215 93.5348 124.3C93.7229 124.379 93.9171 124.451 94.1113 124.512C94.2144 124.549 94.3176 124.579 94.4208 124.603C94.53 124.646 94.6392 124.676 94.7545 124.7C94.8698 124.737 94.979 124.761 95.0943 124.785C95.1793 124.809 95.2581 124.828 95.3431 124.84C95.4887 124.87 95.6465 124.901 95.7982 124.919C95.8346 124.931 95.8649 124.937 95.9013 124.937C96.0834 124.967 96.2654 124.992 96.4475 125.01C99.5664 125.337 103.195 124.458 107.079 122.218C118.65 115.538 128.031 99.2876 128.031 85.9321C128.031 85.6105 128.025 85.2949 128.013 84.9794ZM113.978 75.5316C114.531 77.4126 114.64 79.3544 114.64 80.6287C114.64 92.4127 106.017 107.346 95.8109 113.238C94.1544 114.191 92.5403 114.864 91.0354 115.222C90.4893 113.341 90.374 111.399 90.374 110.119C90.374 98.335 98.9966 83.4017 109.203 77.5097C110.859 76.5571 112.473 75.8896 113.978 75.5316Z" fill="#85D027"/>
<path opacity="0.1" d="M91.97 123.516L83.6193 118.696C79.8511 116.494 77.521 111.809 77.521 105.159C77.521 99.2 79.3899 92.6709 82.4785 86.6758L91.0817 91.6369C87.987 97.6321 86.1241 104.161 86.1241 110.12C86.1241 116.637 88.3414 121.259 91.97 123.516Z" fill="black"/>
<path opacity="0.4" d="M128.013 84.9797C128.007 84.7309 127.995 84.4882 127.977 84.2455C127.965 84.0027 127.946 83.7661 127.922 83.5294C127.91 83.3717 127.892 83.2139 127.874 83.0561C127.831 82.6435 127.77 82.237 127.704 81.8486C127.673 81.6726 127.643 81.4906 127.607 81.3146C127.576 81.1447 127.54 80.9809 127.503 80.8171C127.4 80.368 127.291 79.9311 127.164 79.5124C127.097 79.3122 127.036 79.112 126.969 78.9178C126.957 78.8874 126.945 78.8571 126.939 78.8268C126.866 78.6326 126.8 78.4445 126.727 78.2624C126.642 78.0501 126.557 77.8377 126.46 77.6374C126.393 77.4857 126.326 77.3401 126.247 77.1945C126.205 77.0853 126.15 76.9821 126.09 76.8789C126.029 76.7515 125.962 76.6241 125.889 76.5027C125.871 76.4724 125.859 76.4421 125.841 76.4178C125.78 76.3086 125.713 76.1993 125.647 76.0901C125.604 76.0173 125.556 75.9505 125.513 75.8838C125.192 75.3802 124.846 74.919 124.469 74.4942C124.403 74.4214 124.336 74.3486 124.275 74.2758C124.221 74.2151 124.166 74.1605 124.111 74.1059C124.045 74.0331 123.972 73.9663 123.899 73.8935C123.693 73.6872 123.486 73.4991 123.268 73.3292C123.165 73.2382 123.056 73.1532 122.946 73.0743C122.837 72.9894 122.728 72.9105 122.613 72.8316C122.437 72.7042 122.255 72.5828 122.073 72.4797C118.268 70.1678 112.952 70.4408 107.079 73.8328C95.507 80.5137 86.126 96.7576 86.126 110.119C86.126 116.885 88.5289 121.612 92.4063 123.76C92.5701 123.857 92.734 123.942 92.9039 124.021C93.1102 124.124 93.3226 124.215 93.535 124.3C93.7231 124.379 93.9172 124.452 94.1114 124.512C94.2146 124.549 94.3177 124.579 94.4209 124.603C94.5301 124.646 94.6393 124.676 94.7546 124.701C94.8699 124.737 94.9791 124.761 95.0944 124.785C95.1794 124.81 95.2583 124.828 95.3432 124.84C95.4888 124.87 95.6466 124.901 95.7983 124.919C95.8347 124.931 95.8651 124.937 95.9015 124.937C96.0835 124.968 96.2655 124.992 96.4476 125.01C99.5665 125.338 103.195 124.458 107.079 122.219C118.65 115.538 128.031 99.2879 128.031 85.9323C128.031 85.6107 128.025 85.2952 128.013 84.9797ZM104.955 118.542C102.358 120.04 99.8578 120.829 97.7219 120.829C93.7109 120.829 91.8663 118.093 91.035 115.222C90.4888 113.341 90.3735 111.4 90.3735 110.119C90.3735 98.3353 98.9961 83.402 109.202 77.51C110.859 76.5573 112.473 75.8899 113.978 75.5319C114.84 75.3255 115.659 75.2224 116.435 75.2224C123.068 75.2224 123.778 82.7103 123.778 85.9323C123.778 97.7163 115.161 112.65 104.955 118.542Z" fill="white"/>
<path opacity="0.1" d="M123.778 85.9326C123.778 97.7166 115.161 112.65 104.955 118.542C102.358 120.041 99.858 120.829 97.7221 120.829C93.7111 120.829 91.8665 118.093 91.0352 115.223C92.54 114.865 94.1541 114.191 95.8106 113.238C106.017 107.346 114.64 92.4132 114.64 80.6292C114.64 79.3549 114.53 77.4132 113.978 75.5321C114.84 75.3258 115.659 75.2227 116.436 75.2227C123.068 75.2227 123.778 82.7105 123.778 85.9326Z" fill="black"/>
<path opacity="0.7" d="M120.113 83.8756C120.113 95.6595 111.496 110.593 101.29 116.485C98.6927 117.984 96.1927 118.772 94.0568 118.772C93.6078 118.772 93.183 118.736 92.7886 118.669C91.9512 117.686 91.399 116.473 91.0349 115.223C90.4888 113.342 90.3735 111.4 90.3735 110.12C90.3735 98.3355 98.9961 83.4023 109.202 77.5103C110.859 76.5576 112.473 75.8901 113.978 75.5321C114.84 75.3258 115.659 75.2227 116.435 75.2227C116.891 75.2227 117.309 75.2591 117.71 75.3258C119.803 77.7955 120.113 81.7578 120.113 83.8756Z" fill="white"/>
<path d="M134.813 71.5862V85.0206C134.813 86.0261 135.519 86.4339 136.389 85.9308L224.435 35.0977C225.306 34.5953 226.011 33.3726 226.011 32.3671L226.011 18.9321C226.011 17.9266 225.305 17.5194 224.434 18.0219L136.389 68.8556C135.519 69.358 134.813 70.5807 134.813 71.5862Z" fill="#E6E6E6"/>
<path d="M136.39 68.8555L152.07 59.8027L152.068 76.8798L136.39 85.9314C135.519 86.4338 134.813 86.0266 134.813 85.0212V71.5867C134.813 70.5806 135.519 69.358 136.39 68.8555Z" fill="#85D027"/>
<path d="M146.882 67.2569C145.89 66.6847 144.639 66.7764 143.358 67.516C141.029 68.8601 139.205 72.0197 139.205 74.7084C139.205 75.783 139.497 76.6702 140.036 77.2964L138.367 80.1853C138.116 80.6204 138.265 81.1775 138.7 81.4287C138.844 81.5118 139 81.5512 139.155 81.5512C139.469 81.5512 139.775 81.388 139.944 81.0955L141.612 78.206C141.791 78.2393 141.972 78.2624 142.16 78.2624C142.825 78.2624 143.542 78.0512 144.268 77.6319C146.597 76.2879 148.421 73.1289 148.421 70.4402C148.421 68.9602 147.875 67.8298 146.882 67.2569ZM143.358 76.0549C142.674 76.4493 142.052 76.5446 141.654 76.3134C141.254 76.0834 141.026 75.4978 141.026 74.7084C141.026 72.6793 142.51 70.1071 144.268 69.0925C144.706 68.8395 145.118 68.7102 145.463 68.7102C145.657 68.7102 145.828 68.7509 145.972 68.834C146.371 69.0646 146.6 69.6495 146.6 70.4396C146.6 72.4687 145.116 75.0403 143.358 76.0549Z" fill="white"/>
</svg>
