<svg width="16" height="15" viewBox="0 0 16 15" fill="none" xmlns="http://www.w3.org/2000/svg">
<path d="M8.59366 6.90002C7.40699 6.50669 6.83366 6.26002 6.83366 5.63335C6.83366 4.95335 7.57366 4.70669 8.04033 4.70669C8.91366 4.70669 9.23366 5.36669 9.30699 5.60002L10.3603 5.15335C10.2603 4.85335 9.81366 3.87335 8.66699 3.66002V2.83335H7.33366V3.67335C5.68033 4.04669 5.67366 5.58002 5.67366 5.64669C5.67366 7.16002 7.17366 7.58669 7.90699 7.85335C8.96033 8.22669 9.42699 8.56669 9.42699 9.20669C9.42699 9.96002 8.72699 10.28 8.10699 10.28C6.89366 10.28 6.54699 9.03335 6.50699 8.88669L5.40033 9.33335C5.82033 10.7934 6.92033 11.1867 7.33366 11.3067V12.1667H8.66699V11.34C8.93366 11.28 10.6003 10.9467 10.6003 9.19335C10.6003 8.26669 10.1937 7.45335 8.59366 6.90002ZM2.00033 13.5H0.666992V9.50002H4.66699V10.8334H3.01366C4.08699 12.44 5.92033 13.5 8.00033 13.5C11.3137 13.5 14.0003 10.8134 14.0003 7.50002H15.3337C15.3337 11.5534 12.0537 14.8334 8.00033 14.8334C5.52033 14.8334 3.32699 13.6 2.00033 11.72V13.5ZM0.666992 7.50002C0.666992 3.44669 3.94699 0.166687 8.00033 0.166687C10.4803 0.166687 12.6737 1.40002 14.0003 3.28002V1.50002H15.3337V5.50002H11.3337V4.16669H12.987C11.9137 2.56002 10.0803 1.50002 8.00033 1.50002C4.68699 1.50002 2.00033 4.18669 2.00033 7.50002H0.666992Z" fill="#F5F5F5"/>
</svg>
